{"accessors" : [{"bufferView" : 0, "byteOffset" : 0, "componentType" : 5123, "count" : 2160, "type" : "SCALAR", "max" : [2159], "min" : [0]}, {"bufferView" : 1, "byteOffset" : 0, "componentType" : 5126, "count" : 2160, "type" : "VEC3", "max" : [233.09017944335938, 69.63867950439453, 522.7803955078125], "min" : [-291.4046936035156, -69.63867950439453, 13.603951454162598], "name" : "POSITION"}, {"bufferView" : 1, "byteOffset" : 12, "componentType" : 5126, "count" : 2160, "type" : "VEC3", "max" : [0.999987781047821, 1.0000042915344238, 0.998712956905365], "min" : [-0.999987781047821, -1.0000042915344238, -1.0000042915344238], "name" : "NORMAL"}, {"bufferView" : 1, "byteOffset" : 24, "componentType" : 5126, "count" : 2160, "type" : "VEC2", "max" : [0.9896039962768555, -0.012067999690771103], "min" : [0.010692000389099121, -0.9905930161476135], "name" : "TEXCOORD_0"}, {"bufferView" : 0, "byteOffset" : 4320, "componentType" : 5123, "count" : 237, "type" : "SCALAR", "max" : [236], "min" : [0]}, {"bufferView" : 2, "byteOffset" : 0, "componentType" : 5126, "count" : 237, "type" : "VEC3", "max" : [221.02967834472656, 67.02692413330078, 480.5400695800781], "min" : [-274.14990234375, -67.02692413330078, 81.0096664428711], "name" : "POSITION"}, {"bufferView" : 2, "byteOffset" : 12, "componentType" : 5126, "count" : 237, "type" : "VEC3", "max" : [0.7214427590370178, 0.9912009835243225, 0.9341526031494141], "min" : [-0.36583778262138367, -0.9918093681335449, -0.16355422139167786], "name" : "NORMAL"}, {"bufferView" : 2, "byteOffset" : 24, "componentType" : 5126, "count" : 237, "type" : "VEC2", "max" : [0.9921889901161194, -0.2787730097770691], "min" : [0.36434000730514526, -0.9878519773483276], "name" : "TEXCOORD_0"}], "asset" : {"generator" : "Aspose.3D 23.6.0", "version" : "2.0"}, "buffers" : [{"uri" : "data:application/octet-stream;base64,", "byteLength" : 81512}], "bufferViews" : [{"buffer" : 0, "byteOffset" : 0, "byteLength" : 4796, "target" : 34963}, {"buffer" : 0, "byteOffset" : 4800, "byteLength" : 69120, "byteStride" : 32, "target" : 34962}, {"buffer" : 0, "byteOffset" : 73924, "byteLength" : 7584, "byteStride" : 32, "target" : 34962}], "images" : [{"uri" : "/static/3d/02_barkas_DIF_blue.png"}, {"uri" : "/static/3d/02_barkas_DIF_blue.png"}], "materials" : [{"name" : "02_barkas_One_Sided", "pbrMetallicRoughness" : {"baseColorFactor" : [0.5879999995231628, 0.5879999995231628, 0.5879999995231628, 1], "baseColorTexture" : {"index" : 0, "texCoord" : 0}, "metallicFactor" : 0, "roughnessFactor" : 0}, "emissiveFactor" : [0, 0, 0], "alphaMode" : "OPAQUE", "doubleSided" : false}, {"name" : "02_barkas_Two_Sided", "pbrMetallicRoughness" : {"baseColorFactor" : [0.5879999995231628, 0.5879999995231628, 0.5879999995231628, 1], "baseColorTexture" : {"index" : 1, "texCoord" : 0}, "metallicFactor" : 0, "roughnessFactor" : 0}, "emissiveFactor" : [0, 0, 0], "alphaMode" : "OPAQUE", "doubleSided" : false}], "meshes" : [{"primitives" : [{"attributes" : {"POSITION" : 1, "NORMAL" : 2, "TEXCOORD_0" : 3}, "indices" : 0, "material" : 0, "mode" : 4}, {"attributes" : {"POSITION" : 5, "NORMAL" : 6, "TEXCOORD_0" : 7}, "indices" : 4, "material" : 1, "mode" : 4}], "name" : ""}], "nodes" : [{"matrix" : [999.9999999999999, -7.549790065914199E-05, 7.54979008811868E-05, 0, 7.549790065914197E-05, 1000, 2.2204458816112974E-13, 0, -7.54979008811864E-05, 5.4778884325404275E-12, 1000, 0, -39968.566425368655, 24808.774414062445, 0.00358544553455431, 1], "mesh" : 0, "name" : "02-barkas"}], "samplers" : [{"magFilter" : 9729, "minFilter" : 9729, "wrapS" : 10497, "wrapT" : 10497}, {"magFilter" : 9729, "minFilter" : 9729, "wrapS" : 10497, "wrapT" : 10497}], "scene" : 0, "scenes" : [{"nodes" : [0]}], "textures" : [{"sampler" : 0, "source" : 0, "name" : "Map #2"}, {"sampler" : 1, "source" : 1, "name" : "Map #1"}]}
